<?xml version="1.0" encoding="utf-8"?>
<svg xmlns="http://www.w3.org/2000/svg" id="Calque_1" viewBox="0 0 85 85">
  <defs>
    <style>.cls-1{fill:none;}.cls-2{fill:#fff;}</style>
  </defs>
  <rect class="cls-2" x="-1.25" y="-.24" width="86.22" height="84.89"/>
  <path class="cls-1" d="M28.92,9.56c-3.81.4-7.09,1.81-9.5,4.04,2.03-1.01,4.84-1.95,8.27-1.95,1.22,0,2.43.13,3.63.37,1.07-.83,2.18-1.63,3.35-2.37-1.04-.14-2.11-.22-3.21-.22-.84,0-1.69.04-2.54.13Z"/>
  <path class="cls-1" d="M50.21,74.01c1.3,0,2.62-.18,3.94-.54,2.87-.78,5.5-2.21,7.85-4.26-2.15.66-4.38.99-6.67.99-1.42,0-2.85-.14-4.26-.4-1.33,1.31-2.77,2.6-4.31,3.78,1.11.27,2.27.42,3.46.42Z"/>
  <path d="M49.65,16.79c-.89-.73-1.81-1.43-2.76-2.1-1.68.89-3.25,1.9-4.69,3.03.8.67,1.56,1.38,2.28,2.12,1.21-.91,2.51-1.74,3.89-2.46.43-.22.86-.42,1.28-.59Z"/>
  <path d="M67.97,68.81s0,0,0,0c.11-.13.63-.79.63-.79h0c2.82-3.68,4.52-7.59,5.47-10.28.43-1.02,1.04-3.63,1.06-3.72.76-5.04-1.07-9.98-4.77-12.89-2.05-1.61-4.39-2.45-6.68-2.45-1.17,0-2.32.22-3.41.66-3.05,1.25-5.14,4.11-5.59,7.66-.11.84.49,1.61,1.33,1.72.07,0,.13.01.2.01.76,0,1.42-.57,1.52-1.34.32-2.47,1.67-4.37,3.71-5.2.71-.29,1.47-.43,2.24-.43,1.61,0,3.29.61,4.78,1.79,2.84,2.23,4.23,6.07,3.63,10.02-.02.1-.14.8-.44,1.81-.21.73-.46,1.38-.68,1.84-1.06,2.22-2.76,4.16-4.98,5.69l-.8.52h0c-.98.59-2.04,1.12-3.18,1.56-2.1.81-4.37,1.21-6.65,1.21-.27,0-.55-.01-.83-.02-.83.92-1.72,1.88-2.66,2.84,1.15.18,2.3.28,3.45.28,2.65,0,5.29-.48,7.79-1.43.9-.35,1.76-.75,2.59-1.19-2.67,3.32-6.34,6.35-11.31,7.7-1.44.39-2.84.57-4.18.57-1.53,0-2.99-.24-4.4-.65-1.05.75-2.16,1.45-3.3,2.06,2.37,1.04,4.93,1.67,7.68,1.67h0c1.6,0,3.28-.21,5.01-.69,5.65-1.54,9.79-4.86,12.78-8.51Z"/>
  <path d="M44.62,63.03c-.79.79-1.58,1.5-2.37,2.11.9.62,1.77,1.14,2.6,1.57.53.27,1.06.51,1.6.74.83-.77,1.62-1.56,2.4-2.37-.88-.31-1.75-.67-2.58-1.1-.53-.27-1.08-.59-1.64-.95Z"/>
  <path d="M31.79,49.13c1.46,5.74,3.95,9.81,6.65,12.7.79-.55,1.59-1.2,2.38-1.96-2.44-2.57-4.71-6.24-6.05-11.5-2.38-9.35.02-18.63,6.06-25.22-.71-.73-1.47-1.42-2.28-2.07-6.72,7.33-9.4,17.64-6.76,28.04Z"/>
  <path d="M31.45,17.12c-1.23-.36-2.49-.55-3.77-.55-.07,0-.14,0-.2,0-2.03,1.94-3.84,3.92-5.47,5.72h0l-.03.03s-.03.04-.05.06h0l-.62.68h0s-.01.01-.02.02l-.03.03h0c-.99,1.1-1.88,2.11-2.7,3.03-4.21,4.76-6.13,6.93-8.57,6.93-1.55,0-1.9-.98-1.98-1.56-.1-.75.2-1.45.66-1.57.82-.21,1.31-1.05,1.1-1.87-.18-.69-.8-1.15-1.48-1.15-.13,0-.26.02-.39.05-2,.52-3.24,2.6-2.94,4.94.27,2.11,1.93,4.24,5.03,4.24,3.83,0,6.18-2.66,10.87-7.97.82-.92,1.71-1.93,2.7-3.03l.65-.72c2.08-2.29,4.48-4.89,7.24-7.32Z"/>
  <path d="M36.3,68.52c-1.1.43-2.22.79-3.36,1.05,1.35,1.3,2.8,2.56,4.34,3.7,1.14-.37,2.24-.86,3.3-1.44-1.51-.97-2.93-2.1-4.28-3.31Z"/>
  <path d="M40.29,11.12c-1.36-.53-2.77-.95-4.24-1.24-1.25.75-2.44,1.56-3.57,2.42,1.18.32,2.34.76,3.48,1.32,1.37-.93,2.82-1.77,4.34-2.5Z"/>
  <path d="M77.18,69.75c1.89-2.67,2.22-6.33.87-9.8-.57-1.47-1.43-2.74-2.52-3.78-.19.7-.41,1.43-.61,1.9-.16.45-.35.95-.55,1.47.32.47.6.97.81,1.52.96,2.47.76,5.12-.51,6.92-.87,1.23-2.14,1.91-3.59,1.91-.06,0-.12,0-.17,0-.02,0-.05,0-.07,0-.81,0-1.48.67-1.51,1.49-.03.85.64,1.56,1.49,1.58.08,0,.16,0,.24,0,2.44,0,4.68-1.16,6.13-3.21Z"/>
  <path d="M16.62,34.05c.98.45,1.99.67,2.92.69.05,0,.1,0,.15,0,3.09,0,5.68-1.93,6.29-4.77.18-.83-.35-1.65-1.18-1.82-.11-.02-.22-.03-.32-.03-.71,0-1.35.49-1.5,1.21-.34,1.61-1.84,2.35-3.22,2.35-.05,0-.1,0-.14,0-.19,0-.38-.03-.58-.06-.85.93-1.65,1.74-2.41,2.44Z"/>
  <path d="M27.73,77.32c1.74.47,3.41.69,5.01.69,10.15,0,17.69-8.57,22.92-14.52.8-.9,1.55-1.76,2.27-2.54,2.82-3.05,6.32-4.74,9.67-4.74.6,0,1.2.05,1.79.17.29.06.57.13.85.21.18-.41.37-.93.53-1.48.2-.67.31-1.18.37-1.46-.38-.11-.77-.21-1.17-.29-.78-.15-1.57-.22-2.36-.22-4.2,0-8.53,2.04-11.93,5.73-.74.8-1.5,1.67-2.32,2.59-5.11,5.8-11.85,13.47-20.64,13.47-1.35,0-2.74-.18-4.18-.57-4.97-1.35-8.64-4.38-11.31-7.7.82.44,1.68.84,2.59,1.19,2.5.96,5.14,1.43,7.79,1.43,3.58,0,7.18-.86,10.48-2.57,4.51-2.33,10.44-7.28,13.06-17.57,3.56-14.01-2.53-27.86-15.15-34.48-2.84-1.49-5.66-2.09-8.29-2.09-4.06,0-7.67,1.43-10.23,3.29-.74.53-1.41,1.11-2.01,1.73,2.26-5.04,7.11-8.29,13.38-8.94.9-.09,1.77-.14,2.63-.14,12.86,0,21.81,9.91,27.86,16.61,1,1.11,1.9,2.13,2.73,3.06.78.88,1.49,1.68,2.16,2.42.49-.15,1.05-.45,1.57-1.02.06-.1.13-.19.2-.28.1-.12.2-.26.32-.42.07-.11.12-.23.18-.35-.64-.71-1.34-1.5-2.12-2.38-.83-.94-1.74-1.96-2.75-3.08-6.42-7.11-15.92-17.63-30.06-17.63-.99,0-2,.05-3.04.16-7.62.79-13.49,4.9-16.1,11.27-1.98,4.83-1.7,10.08.64,13.81.68-.59,1.43-1.37,2.32-2.33-.18-.47-.33-.99-.42-1.59-.48-2.91,1.17-6.13,4.32-8.4,2.11-1.52,5.08-2.7,8.42-2.7,2.18,0,4.52.5,6.88,1.74,11.34,5.94,16.81,18.4,13.6,31-2.34,9.19-7.54,13.56-11.49,15.6-2.82,1.46-5.98,2.2-9.1,2.2-2.29,0-4.55-.4-6.65-1.21-4-1.54-7.01-4.08-8.69-7.25-1.05.44-1.95,1.1-2.63,1.95,2.4,5.85,7.68,14.79,18.14,17.64Z"/>
  <path d="M70.1,32.02c-.62.87-1.36,1.61-2.21,2.19,1.62,1.29,3.15,1.93,5.03,1.93,3.1,0,4.76-2.13,5.03-4.24.3-2.34-.94-4.42-2.94-4.94-.13-.03-.26-.05-.39-.05-.68,0-1.3.46-1.48,1.15-.21.82.28,1.66,1.1,1.87.46.12.76.83.66,1.57-.08.58-.43,1.56-1.98,1.56-.96,0-1.85-.34-2.82-1.05Z"/>
  <path d="M10.77,53.01c-.4-3.75.99-7.35,3.7-9.48,1.5-1.18,3.18-1.79,4.78-1.79.77,0,1.53.14,2.24.43,2.04.84,3.39,2.73,3.71,5.2.1.78.76,1.34,1.52,1.34.06,0,.13,0,.19-.01.84-.11,1.44-.88,1.33-1.72-.45-3.55-2.54-6.41-5.59-7.66-1.09-.45-2.24-.66-3.41-.66-2.29,0-4.63.84-6.68,2.45-3.7,2.92-5.53,7.86-4.77,12.89.01.09.04.18.05.28,0,.03,0,.06,0,.09,0,.03.02.09.04.16.87-.63,1.83-1.14,2.87-1.52Z"/>
  <path class="cls-1" d="M51.46,8.5c.86,0,1.74.04,2.64.14,6.28.65,11.12,3.9,13.38,8.94-.61-.61-1.28-1.2-2.01-1.73-2.56-1.85-6.18-3.29-10.23-3.29-.87,0-1.76.07-2.67.22,1.15.94,2.23,1.91,3.27,2.89,3.1.13,5.85,1.24,7.83,2.68.59.42,1.12.88,1.6,1.37l.66.73c1.63,1.95,2.4,4.21,2.05,6.31-.18,1.07-.5,1.93-.91,2.62-.12.17-.25.35-.38.51-.06.07-.11.15-.16.23-.93,1.08-2.13,1.53-3.22,1.56-.03,0-.06,0-.1,0-1.39,0-2.92-.72-3.27-2.34-.15-.72-.79-1.22-1.5-1.22-.11,0-.22.01-.33.04-.83.18-1.36.99-1.18,1.82.61,2.83,3.17,4.77,6.27,4.77.06,0,.12,0,.18,0,2.16-.05,4.74-1.14,6.33-3.82,2.48-3.73,2.82-9.09.82-14.01h0s-.01-.03-.01-.03c0-.01,0-.02-.01-.03h0s-.43-.97-.43-.97h0c-2.8-5.81-8.44-9.55-15.67-10.3-1.03-.11-2.05-.16-3.04-.16-3.08,0-5.93.5-8.58,1.35,1.48.62,2.9,1.33,4.25,2.13,1.42-.26,2.89-.4,4.41-.4Z"/>
  <path class="cls-1" d="M19.61,31.67c-.19,0-.38-.03-.58-.06-.85.93-1.65,1.74-2.41,2.44.98.45,1.99.67,2.92.69.05,0,.1,0,.15,0,3.09,0,5.68-1.93,6.29-4.77.18-.83-.35-1.65-1.18-1.82-.11-.02-.22-.03-.32-.03-.71,0-1.35.49-1.5,1.21-.34,1.61-1.84,2.35-3.22,2.35-.05,0-.1,0-.14,0Z"/>
  <path class="cls-1" d="M67.9,34.2c1.62,1.29,3.15,1.93,5.03,1.93,3.1,0,4.76-2.13,5.03-4.24.3-2.34-.94-4.42-2.94-4.94-.13-.03-.26-.05-.39-.05-.68,0-1.3.46-1.48,1.15-.21.82.28,1.66,1.1,1.87.46.12.76.83.66,1.57-.08.58-.43,1.56-1.98,1.56-.96,0-1.85-.34-2.82-1.05-.62.87-1.36,1.61-2.21,2.19Z"/>
  <path class="cls-1" d="M40.58,71.83c-1.51-.97-2.93-2.1-4.28-3.31-1.1.43-2.22.79-3.36,1.05,1.35,1.3,2.8,2.56,4.34,3.7,1.14-.37,2.24-.86,3.3-1.44Z"/>
  <path class="cls-1" d="M42.24,65.14c.9.62,1.77,1.14,2.6,1.57.53.27,1.06.51,1.6.74.83-.77,1.62-1.56,2.4-2.37-.88-.31-1.75-.67-2.58-1.1-.53-.27-1.08-.59-1.64-.95-.79.79-1.58,1.5-2.37,2.11Z"/>
  <path class="cls-1" d="M40.29,11.12c-1.36-.53-2.77-.95-4.24-1.24-1.25.75-2.44,1.56-3.57,2.42,1.18.32,2.34.76,3.48,1.32,1.37-.93,2.82-1.77,4.34-2.5Z"/>
  <path class="cls-1" d="M42.2,17.72c.8.67,1.56,1.38,2.28,2.12,1.21-.91,2.51-1.74,3.89-2.46.43-.22.86-.42,1.28-.59-.89-.73-1.81-1.43-2.76-2.1-1.68.89-3.25,1.9-4.69,3.03Z"/>
  <path class="cls-1" d="M27.48,16.58c-2.03,1.94-3.84,3.92-5.47,5.72l-.03.03s-.03.04-.05.06l-.62.68s-.01.01-.02.02l-.03.03h0c-.99,1.1-1.88,2.11-2.7,3.03-4.21,4.76-6.13,6.93-8.57,6.93-1.55,0-1.9-.98-1.98-1.56-.1-.75.2-1.45.66-1.57.82-.21,1.31-1.05,1.1-1.87-.18-.69-.8-1.15-1.48-1.15-.13,0-.26.02-.39.05-2,.52-3.24,2.6-2.94,4.94.27,2.11,1.93,4.24,5.03,4.24,3.83,0,6.18-2.66,10.87-7.97.82-.92,1.71-1.93,2.7-3.03l.65-.72c2.08-2.29,4.48-4.89,7.24-7.32-1.23-.36-2.49-.55-3.77-.55-.07,0-.14,0-.2,0Z"/>
  <path class="cls-1" d="M55.67,63.49c.8-.9,1.55-1.76,2.27-2.54,2.82-3.05,6.32-4.74,9.67-4.74.6,0,1.2.05,1.79.17.29.06.57.13.85.21.18-.41.37-.93.53-1.48.2-.67.31-1.18.37-1.46-.38-.11-.77-.21-1.17-.29-.78-.15-1.57-.22-2.36-.22-4.2,0-8.53,2.04-11.93,5.73-.74.8-1.5,1.67-2.32,2.59-5.11,5.8-11.85,13.47-20.64,13.47-1.35,0-2.74-.18-4.18-.57-4.97-1.35-8.64-4.38-11.31-7.7.82.44,1.68.84,2.59,1.19,2.5.96,5.14,1.43,7.79,1.43,3.58,0,7.18-.86,10.48-2.57,4.51-2.33,10.44-7.28,13.06-17.57,3.56-14.01-2.53-27.86-15.15-34.48-2.84-1.49-5.66-2.09-8.29-2.09-4.06,0-7.67,1.43-10.23,3.29-.74.53-1.41,1.11-2.01,1.73,2.26-5.04,7.11-8.29,13.38-8.94.9-.09,1.77-.14,2.63-.14,12.86,0,21.81,9.91,27.86,16.61,1,1.11,1.9,2.13,2.73,3.06.78.88,1.49,1.68,2.16,2.42.49-.15,1.05-.45,1.57-1.02.06-.1.13-.19.2-.28.1-.12.2-.26.32-.42.07-.11.12-.23.18-.35-.64-.71-1.34-1.5-2.12-2.38-.83-.94-1.74-1.96-2.75-3.08-6.42-7.11-15.92-17.63-30.06-17.63-.99,0-2,.05-3.04.16-7.62.79-13.49,4.9-16.1,11.27-1.98,4.83-1.7,10.08.64,13.81.68-.59,1.43-1.37,2.32-2.33-.18-.47-.33-.99-.42-1.59-.48-2.91,1.17-6.13,4.32-8.4,2.11-1.52,5.08-2.7,8.42-2.7,2.18,0,4.52.5,6.88,1.74,11.34,5.94,16.81,18.4,13.6,31-2.34,9.19-7.54,13.56-11.49,15.6-2.82,1.46-5.98,2.2-9.1,2.2-2.29,0-4.55-.4-6.65-1.21-4-1.54-7.01-4.08-8.69-7.25-1.05.44-1.95,1.1-2.63,1.95,2.4,5.85,7.68,14.79,18.14,17.64,1.74.47,3.41.69,5.01.69,10.15,0,17.69-8.57,22.92-14.52Z"/>
  <path class="cls-1" d="M75.54,56.16c-.19.7-.41,1.43-.61,1.9-.16.45-.35.95-.55,1.47.32.47.6.97.81,1.52.96,2.47.76,5.12-.51,6.92-.87,1.23-2.14,1.91-3.59,1.91-.06,0-.12,0-.17,0-.02,0-.05,0-.07,0-.81,0-1.48.67-1.51,1.49-.03.85.64,1.56,1.49,1.58.08,0,.16,0,.24,0,2.44,0,4.68-1.16,6.13-3.21,1.89-2.67,2.22-6.33.87-9.8-.57-1.47-1.43-2.74-2.52-3.78Z"/>
  <path class="cls-1" d="M70.36,41.12c-2.05-1.61-4.39-2.45-6.68-2.45-1.17,0-2.32.22-3.41.66-3.05,1.25-5.14,4.11-5.59,7.66-.11.84.49,1.61,1.33,1.72.07,0,.13.01.2.01.76,0,1.42-.57,1.52-1.34.32-2.47,1.67-4.37,3.71-5.2.71-.29,1.47-.43,2.24-.43,1.61,0,3.29.61,4.78,1.79,2.84,2.23,4.23,6.07,3.63,10.02-.02.1-.14.8-.44,1.81-.21.73-.46,1.38-.68,1.84-1.06,2.22-2.76,4.16-4.98,5.69l-.8.52h0c-.98.59-2.04,1.12-3.18,1.56-2.1.81-4.37,1.21-6.65,1.21-.27,0-.55-.01-.83-.02-.83.92-1.72,1.88-2.66,2.84,1.15.18,2.3.28,3.45.28,2.65,0,5.29-.48,7.79-1.43.9-.35,1.76-.75,2.59-1.19-2.67,3.32-6.34,6.35-11.31,7.7-1.44.39-2.84.57-4.18.57-1.53,0-2.99-.24-4.4-.65-1.05.75-2.16,1.45-3.3,2.06,2.37,1.04,4.93,1.67,7.68,1.67h0c1.6,0,3.28-.21,5.01-.69,5.65-1.54,9.79-4.86,12.78-8.51,0,0,0,0,0,0,.11-.13.63-.79.63-.79,2.82-3.68,4.52-7.59,5.47-10.28.43-1.02,1.04-3.63,1.06-3.72.76-5.04-1.07-9.98-4.77-12.89Z"/>
  <path class="cls-1" d="M40.81,59.87c-2.44-2.57-4.71-6.24-6.05-11.5-2.38-9.35.02-18.63,6.06-25.22-.71-.73-1.47-1.42-2.28-2.07-6.72,7.33-9.4,17.64-6.76,28.04,1.46,5.74,3.95,9.81,6.65,12.7.79-.55,1.59-1.2,2.38-1.96Z"/>
  <path class="cls-1" d="M7.85,54.29s0,.06,0,.09c0,.03.02.09.04.16.87-.63,1.83-1.14,2.87-1.52-.4-3.75.99-7.35,3.7-9.48,1.5-1.18,3.18-1.79,4.78-1.79.77,0,1.53.14,2.24.43,2.04.84,3.39,2.73,3.71,5.2.1.78.76,1.34,1.52,1.34.06,0,.13,0,.19-.01.84-.11,1.44-.88,1.33-1.72-.45-3.55-2.54-6.41-5.59-7.66-1.09-.45-2.24-.66-3.41-.66-2.29,0-4.63.84-6.68,2.45-3.7,2.92-5.53,7.86-4.77,12.89.01.09.04.18.05.28Z"/>
  <path class="cls-1" d="M15.32,56.21c3.34,0,6.84,1.69,9.65,4.72l.64.7h0c.53.59,1.07,1.2,1.65,1.85.49.56,1,1.14,1.53,1.73,1.22-.08,2.43-.28,3.61-.59-1-1.08-1.94-2.15-2.84-3.17-.58-.66-1.13-1.28-1.67-1.87h0s-.65-.72-.65-.72h0s-.01-.01-.02-.02l-.04-.04h0c-3.4-3.65-7.69-5.67-11.87-5.67-.79,0-1.58.07-2.36.22-3.8.72-6.75,3.12-8.09,6.59-1.34,3.47-1.02,7.13.87,9.8,1.45,2.05,3.7,3.21,6.14,3.21.07,0,.15,0,.22,0,.85-.03,1.51-.74,1.49-1.58-.03-.82-.69-1.49-1.51-1.49-.02,0-.05,0-.07,0-.06,0-.12,0-.18,0-1.45,0-2.71-.68-3.58-1.91-1.27-1.8-1.47-4.45-.51-6.92.95-2.45,3.06-4.16,5.8-4.68.59-.11,1.19-.17,1.79-.17Z"/>
  <path d="M27.25,58.87h0s-.01-.01-.02-.02l-.04-.04h0c-3.4-3.65-7.69-5.67-11.87-5.67-.79,0-1.58.07-2.36.22-3.8.72-6.75,3.12-8.09,6.59-1.34,3.47-1.02,7.13.87,9.8,1.45,2.05,3.7,3.21,6.14,3.21.07,0,.15,0,.22,0,.85-.03,1.51-.74,1.49-1.58-.03-.82-.69-1.49-1.51-1.49-.02,0-.05,0-.07,0-.06,0-.12,0-.18,0-1.45,0-2.71-.68-3.58-1.91-1.27-1.8-1.47-4.45-.51-6.92.95-2.45,3.06-4.16,5.8-4.68.59-.11,1.19-.17,1.79-.17,3.34,0,6.84,1.69,9.65,4.72l.64.7h0c.53.59,1.07,1.2,1.65,1.85.49.56,1,1.14,1.53,1.73,1.22-.08,2.43-.28,3.61-.59-1-1.08-1.94-2.15-2.84-3.17-.58-.66-1.13-1.28-1.67-1.87h0s-.65-.72-.65-.72Z"/>
  <path d="M70.08,15.88h0c-2.8-5.81-8.44-9.55-15.67-10.3-1.03-.11-2.05-.16-3.04-.16-3.08,0-5.93.5-8.58,1.35,1.48.62,2.9,1.33,4.25,2.13,1.42-.26,2.89-.4,4.41-.4.86,0,1.74.04,2.64.14,6.28.65,11.12,3.9,13.38,8.94-.61-.61-1.28-1.2-2.01-1.73-2.56-1.85-6.18-3.29-10.23-3.29-.87,0-1.76.07-2.67.22,1.15.94,2.23,1.91,3.27,2.89,3.1.13,5.85,1.24,7.83,2.68.59.42,1.12.88,1.6,1.37l.66.73c1.63,1.95,2.4,4.21,2.05,6.31-.18,1.07-.5,1.93-.91,2.62-.12.17-.25.35-.38.51-.06.07-.11.15-.16.23-.93,1.08-2.13,1.53-3.22,1.56-.03,0-.06,0-.1,0-1.39,0-2.92-.72-3.27-2.34-.15-.72-.79-1.22-1.5-1.22-.11,0-.22.01-.33.04-.83.18-1.36.99-1.18,1.82.61,2.83,3.17,4.77,6.27,4.77.06,0,.12,0,.18,0,2.16-.05,4.74-1.14,6.33-3.82,2.48-3.73,2.82-9.09.82-14.01h0s-.01-.03-.01-.03c0-.01,0-.02-.01-.03h0s-.43-.97-.43-.97Z"/>
</svg>