<?xml version="1.0" encoding="utf-8"?>
<svg xmlns="http://www.w3.org/2000/svg" id="Calque_1" viewBox="0 0 63.5 61.21">
  <defs>
    <style>.cls-1{fill:#433726;}</style>
  </defs>
  <path class="cls-1" d="M40.75,44.98c0-6.24,9.12-8.67,15.03-9.61v9.61c-2.98,3.43-6.13,5.08-9.45,5.08-3.65,0-5.58-2.04-5.58-5.08M44.95,52.06c4.25,0,7.4-2.1,10.66-5.64h.11v.17c0,2.38.22,5.47,3.43,5.47,1.33,0,2.65-.61,3.92-1.77l-.55-.66c-.55.55-1.22.83-1.82.83-1.77,0-1.99-2.15-1.99-6.63v-12.32c0-7.4-3.87-9.06-9.01-9.06-6.74,0-11.16,3.48-11.16,5.47,0,.99.55,1.55,1.6,1.55,3.32,0,2.82-6.08,9.61-6.08,4.31,0,6.02,2.54,6.02,8.12v2.87c-6.91,1.1-18.29,3.81-18.29,11.33,0,4.14,3.26,6.35,7.46,6.35M10.19,36.47l7.51-19.61,7.57,19.61h-15.08ZM24.83,50.12v.94h12.04v-.94c-2.71,0-3.43-1.49-5.36-6.52L18.8,10.45h-.33c-.61,1.05-1.16,1.66-2.21,2.27v.33l.83,2.15-10.5,27.24c-2.04,5.3-3.32,7.68-6.35,7.68v.94h11.71v-.94c-4.31,0-6.19-2.1-4.09-7.57l1.88-4.86h15.97l2.27,5.91c1.93,5.03.77,6.52-3.15,6.52"/>
</svg>