<?xml version="1.0" encoding="utf-8"?>
<svg xmlns="http://www.w3.org/2000/svg" id="Calque_1" viewBox="0 0 64.5 59.61">
  <defs>
    <style>.cls-1{fill:#433726;}</style>
  </defs>
  <path class="cls-1" d="M43.92,41.7c0-2.52,1.83-3.96,7.57-5.94l3.32-1.14v6.93c-1.98,2.33-4.41,3.61-6.88,3.61s-4.01-1.34-4.01-3.46M58.87,48.18c2.08,0,3.81-1.19,5.1-3.51.1-.2.2-.45.2-.64,0-.59-.59-1.14-1.24-1.14-.4,0-.64.25-.69.64-.1,1.24-.79,1.93-2.08,1.93-1.04,0-1.48-.89-1.48-2.97v-14.5c0-4.95-3.02-7.97-7.92-7.97-2.67,0-5.3.99-7.47,2.77-1.98,1.63-3.37,3.81-3.37,5.25,0,1.29.99,2.28,2.28,2.28,1.48,0,2.62-.94,2.62-2.18s-.4-1.53-.4-2.47c0-1.98,1.93-3.32,4.75-3.32,3.71,0,5.64,2.38,5.64,6.88v3.76l-5,1.34c-6.68,1.78-9.95,4.36-9.95,7.82s2.87,6.04,6.73,6.04c2.97,0,6.04-1.68,8.22-4.41.2,2.82,1.63,4.41,4.06,4.41M12.95,33.38l6.78-16.33,6.29,16.33h-13.07ZM2.21,47.69c.99,0,3.76-.25,6.04-.25,1.34,0,3.46.25,5.05.25.84,0,1.48-.59,1.48-1.39,0-.69-.54-1.19-1.29-1.19-.69,0-1.24.54-2.38.54-1.98,0-2.43-2.08-1.14-5.2l2.08-4.95h14.8l2.77,7.23c.74,1.93.35,2.92-1.19,2.92-.64,0-1.19-.54-1.88-.54-.74,0-1.29.49-1.29,1.19,0,.79.64,1.39,1.48,1.39,1.44,0,3.42-.25,6.29-.25,1.88,0,3.86.25,4.8.25.84,0,1.48-.59,1.48-1.39,0-.69-.54-1.19-1.29-1.19-.69,0-1.24.54-1.88.54-.74,0-1.29-.69-1.93-2.38L21.22,9.13c-.25-.59-.45-.74-.74-.74-.35,0-.54.1-.89.69-.3.54-.59,1.09-1.29,1.68-.89.79-1.14,1.29-.94,2.08l.3,1.29c.25.94.2,1.39-.25,2.47l-10,24.15c-1.48,3.56-2.43,4.9-3.51,4.9-.64,0-1.14-.54-1.83-.54-.79,0-1.34.49-1.34,1.19,0,.79.64,1.39,1.48,1.39"/>
</svg>