<?xml version="1.0" encoding="utf-8"?>
<svg xmlns="http://www.w3.org/2000/svg" id="Calque_1" viewBox="0 0 72.95 67.02">
  <defs>
    <style>.cls-1{fill:#433726;}</style>
  </defs>
  <path class="cls-1" d="M48.27,45.65c0-3.76,2.88-5.76,6.59-7.06,3-1.06,6.7-1.71,9.64-2.18v10c-3.18,3.18-6.47,4.94-10.17,4.94s-6.06-2-6.06-5.7M57.5,23.31c4.53,0,7,2.88,7,8.11v4c-3.06.47-6.94,1.12-10.11,2.18-4.65,1.53-8.35,4.23-8.35,8.64s3.47,6.59,7.35,6.59,7.53-1.88,11.11-5.47v1.53c0,2.59,1.47,3.88,3.29,3.88,1.29,0,2.65-.65,3.82-1.94l-.24-.29c-.76.71-1.71,1.23-2.65,1.23-1.23,0-2.12-.65-2.12-3.88v-16.64c0-6-3.18-9.47-8.76-9.47-4.12,0-7.76,1.88-11.29,5.82l.35.35c3.18-2.88,7.11-4.65,10.58-4.65M11.99,35.13l9.82-22.93,10,22.93H11.99ZM35.75,51.65v.35h7.64v-.35c-1.65-.71-2.88-2.41-4.29-5.64L22.81,8.84h-.88L5.88,46c-1.35,3.23-2.59,4.88-4.29,5.64v.35h7v-.35c-2.12-.76-2.53-2.7-1.23-5.64l4.17-9.7h20.82l4.23,9.7c1.29,3.18,1.06,5-.82,5.64"/>
</svg>