<?xml version="1.0" encoding="utf-8"?>
<svg xmlns="http://www.w3.org/2000/svg" id="Calque_1" viewBox="0 0 63.5 61.21">
  <defs>
    <style>.cls-1{fill:#433726;}</style>
  </defs>
  <path class="cls-1" d="M43.15,41.1c0-3.93,2.58-5.84,8.37-6.97l4.44-.88v9.66c-2.43,2.53-4.96,3.72-7.54,3.72-3.25,0-5.27-2.12-5.27-5.53M58.91,47.82c1.6,0,2.58-.72,4.08-2.12.26-.21,0-.57-.21-.36-.98.83-1.45,1.08-2.01,1.08-.77,0-1.19-.88-1.19-2.74v-13.69c0-6.3-2.94-8.78-8.52-8.78-4.6,0-11.36,2.27-11.36,5.06,0,1.08.77,1.86,1.91,1.86,1.34,0,2.07-.98,2.94-2.63.98-1.81,2.58-3.77,5.89-3.77,3.56,0,5.53,2.43,5.53,8.27v2.79l-5.53,1.08c-6.82,1.34-10.95,3.2-10.95,7.96,0,3.87,2.79,6.35,6.97,6.35,3.72,0,7.13-2.32,9.5-4.65.05,3.15,1.08,4.29,2.94,4.29M10.54,33.41l.72-2.01,7.08-19.11,8.01,21.13h-15.81ZM26.71,47.66h12.66c.31,0,.31-.41,0-.41-2.48,0-4.13-1.45-8.78-13.84l-9.14-24.28c-.21-.57-.52-.72-1.19-.72h-3c-.26,0-.31.15-.21.41l.98,2.58-7.39,19.89c-5.11,13.84-7.23,15.96-10.23,15.96-.31,0-.31.41,0,.41h12.4c.31,0,.31-.41,0-.41-3.82,0-6.3-1.86-2.48-13.28h16.22c4.49,11.88,3.72,13.28.15,13.28-.31,0-.31.41,0,.41"/>
</svg>