<?xml version="1.0" encoding="utf-8"?>
<svg xmlns="http://www.w3.org/2000/svg" id="Calque_1" viewBox="0 0 63.5 61.21">
  <defs>
    <style>.cls-1{fill:#433726;}</style>
  </defs>
  <path class="cls-1" d="M44.15,44.3c0-3.69,3.57-6.26,9.51-8.38v8.57c-1.38,1.63-3.57,3.25-6.01,3.25-1.94,0-3.5-1.06-3.5-3.44M42.65,31.16c1.5,0,2.19-1.06,2.81-2.56.94-2.13,1.94-3.38,4.25-3.38,2.75,0,3.94,1.75,3.94,6.26v3.19c-6.88,2.25-13.76,5-13.76,10.63,0,3.07,2,4.94,5.38,4.94,3.75,0,6.76-2.38,8.38-4.25v.69c0,2.63.94,3.57,2.5,3.57,2.44,0,4.88-2,6.26-3.19l-.5-.69c-.94.75-1.75,1.31-2.69,1.31-1.25,0-1.56-1-1.56-2.44v-14.01c0-4.69-2.56-7.26-8.13-7.26s-8.94,2.44-8.94,5.13c0,1.25.75,2.06,2.06,2.06M10.47,35.66l8.01-19.95,7.57,19.95h-15.58ZM.27,48.74v.88h11.63v-.88c-3.38-.13-6.19-1.31-4.25-6.07l2.25-5.57h16.7l1.81,4.75c2.06,5.5.44,6.76-2.81,6.88v.88h13.7v-.88c-2.75-.13-4-1.38-6.07-6.88L20.79,8.95h-1.19L6.09,42.61c-1.88,4.75-3.57,6.01-5.82,6.13"/>
</svg>